<?xml version="1.0" encoding="UTF-8"?>
<svg xmlns="http://www.w3.org/2000/svg" xmlns:xlink="http://www.w3.org/1999/xlink" width="595.32pt" height="841.92pt" viewBox="0 0 595.32 841.92">
<defs>
<g>
<g id="glyph-0-0">
<path d="M 2.859375 -4.328125 L 2.859375 -1.640625 C 2.859375 -1.054688 2.925781 -0.691406 3.0625 -0.546875 C 3.226562 -0.347656 3.488281 -0.25 3.84375 -0.25 L 4.1875 -0.25 L 4.1875 0 L 0.234375 0 L 0.234375 -0.25 L 0.578125 -0.25 C 0.972656 -0.25 1.253906 -0.378906 1.421875 -0.640625 C 1.515625 -0.773438 1.5625 -1.109375 1.5625 -1.640625 L 1.5625 -7.609375 C 1.5625 -8.191406 1.5 -8.554688 1.375 -8.703125 C 1.195312 -8.898438 0.929688 -9 0.578125 -9 L 0.234375 -9 L 0.234375 -9.25 L 3.625 -9.25 C 4.445312 -9.25 5.097656 -9.160156 5.578125 -8.984375 C 6.054688 -8.816406 6.457031 -8.53125 6.78125 -8.125 C 7.113281 -7.71875 7.28125 -7.238281 7.28125 -6.6875 C 7.28125 -5.9375 7.03125 -5.320312 6.53125 -4.84375 C 6.03125 -4.375 5.328125 -4.140625 4.421875 -4.140625 C 4.191406 -4.140625 3.945312 -4.15625 3.6875 -4.1875 C 3.4375 -4.21875 3.160156 -4.265625 2.859375 -4.328125 Z M 2.859375 -4.71875 C 3.097656 -4.675781 3.3125 -4.640625 3.5 -4.609375 C 3.6875 -4.585938 3.847656 -4.578125 3.984375 -4.578125 C 4.453125 -4.578125 4.859375 -4.757812 5.203125 -5.125 C 5.546875 -5.5 5.71875 -5.972656 5.71875 -6.546875 C 5.71875 -6.953125 5.632812 -7.328125 5.46875 -7.671875 C 5.3125 -8.015625 5.082031 -8.269531 4.78125 -8.4375 C 4.476562 -8.613281 4.140625 -8.703125 3.765625 -8.703125 C 3.523438 -8.703125 3.222656 -8.65625 2.859375 -8.5625 Z M 2.859375 -4.71875 "/>
</g>
<g id="glyph-0-1">
<path d="M 1.484375 -3.890625 C 1.484375 -2.960938 1.707031 -2.238281 2.15625 -1.71875 C 2.613281 -1.1875 3.148438 -0.921875 3.765625 -0.921875 C 4.171875 -0.921875 4.523438 -1.03125 4.828125 -1.25 C 5.128906 -1.476562 5.382812 -1.867188 5.59375 -2.421875 L 5.796875 -2.28125 C 5.703125 -1.65625 5.425781 -1.085938 4.96875 -0.578125 C 4.507812 -0.0664062 3.9375 0.1875 3.25 0.1875 C 2.5 0.1875 1.851562 -0.101562 1.3125 -0.6875 C 0.78125 -1.269531 0.515625 -2.054688 0.515625 -3.046875 C 0.515625 -4.109375 0.785156 -4.9375 1.328125 -5.53125 C 1.878906 -6.132812 2.570312 -6.4375 3.40625 -6.4375 C 4.101562 -6.4375 4.675781 -6.203125 5.125 -5.734375 C 5.570312 -5.273438 5.796875 -4.660156 5.796875 -3.890625 Z M 1.484375 -4.296875 L 4.375 -4.296875 C 4.351562 -4.691406 4.304688 -4.972656 4.234375 -5.140625 C 4.117188 -5.390625 3.945312 -5.585938 3.71875 -5.734375 C 3.5 -5.878906 3.265625 -5.953125 3.015625 -5.953125 C 2.640625 -5.953125 2.300781 -5.804688 2 -5.515625 C 1.707031 -5.222656 1.535156 -4.816406 1.484375 -4.296875 Z M 1.484375 -4.296875 "/>
</g>
<g id="glyph-0-2">
<path d="M 5.390625 -6.25 L 5.640625 -4.546875 L 5.34375 -4.546875 C 5.164062 -5.109375 4.988281 -5.457031 4.8125 -5.59375 C 4.644531 -5.726562 4.273438 -5.796875 3.703125 -5.796875 L 2.390625 -5.796875 L 2.390625 -1.46875 C 2.390625 -0.988281 2.410156 -0.703125 2.453125 -0.609375 C 2.503906 -0.515625 2.582031 -0.429688 2.6875 -0.359375 C 2.800781 -0.285156 3.015625 -0.25 3.328125 -0.25 L 3.328125 0 L 0.21875 0 L 0.21875 -0.25 C 0.65625 -0.257812 0.9375 -0.328125 1.0625 -0.453125 C 1.195312 -0.585938 1.265625 -0.925781 1.265625 -1.46875 L 1.265625 -4.78125 C 1.265625 -5.21875 1.238281 -5.5 1.1875 -5.625 C 1.132812 -5.75 1.046875 -5.835938 0.921875 -5.890625 C 0.796875 -5.953125 0.5625 -5.984375 0.21875 -5.984375 L 0.21875 -6.25 Z M 5.390625 -6.25 "/>
</g>
<g id="glyph-0-3">
<path d="M 2.390625 -1.921875 L 5.09375 -5.046875 C 5.082031 -5.398438 5.015625 -5.644531 4.890625 -5.78125 C 4.765625 -5.914062 4.550781 -5.984375 4.25 -5.984375 L 4.25 -6.25 L 7.15625 -6.25 L 7.15625 -5.984375 C 6.851562 -5.984375 6.648438 -5.953125 6.546875 -5.890625 C 6.441406 -5.828125 6.359375 -5.75 6.296875 -5.65625 C 6.242188 -5.570312 6.21875 -5.28125 6.21875 -4.78125 L 6.21875 -1.46875 C 6.21875 -0.988281 6.238281 -0.703125 6.28125 -0.609375 C 6.332031 -0.515625 6.410156 -0.429688 6.515625 -0.359375 C 6.628906 -0.285156 6.84375 -0.25 7.15625 -0.25 L 7.15625 0 L 4.140625 0 L 4.140625 -0.25 C 4.515625 -0.25 4.765625 -0.316406 4.890625 -0.453125 C 5.023438 -0.597656 5.09375 -0.9375 5.09375 -1.46875 L 5.09375 -4.40625 L 2.390625 -1.28125 C 2.398438 -0.894531 2.453125 -0.628906 2.546875 -0.484375 C 2.648438 -0.335938 2.867188 -0.257812 3.203125 -0.25 L 3.203125 0 L 0.3125 0 L 0.3125 -0.25 C 0.71875 -0.25 0.976562 -0.320312 1.09375 -0.46875 C 1.207031 -0.625 1.265625 -0.957031 1.265625 -1.46875 L 1.265625 -4.78125 C 1.265625 -5.269531 1.238281 -5.554688 1.1875 -5.640625 C 1.132812 -5.734375 1.054688 -5.8125 0.953125 -5.875 C 0.847656 -5.945312 0.632812 -5.984375 0.3125 -5.984375 L 0.3125 -6.25 L 3.328125 -6.25 L 3.328125 -5.984375 C 3.023438 -5.984375 2.820312 -5.953125 2.71875 -5.890625 C 2.613281 -5.828125 2.53125 -5.75 2.46875 -5.65625 C 2.414062 -5.570312 2.390625 -5.28125 2.390625 -4.78125 Z M 2.390625 -1.921875 "/>
</g>
<g id="glyph-0-4">
<path d="M 5.75 -2.375 C 5.570312 -1.550781 5.238281 -0.914062 4.75 -0.46875 C 4.257812 -0.03125 3.71875 0.1875 3.125 0.1875 C 2.414062 0.1875 1.796875 -0.109375 1.265625 -0.703125 C 0.742188 -1.296875 0.484375 -2.097656 0.484375 -3.109375 C 0.484375 -4.097656 0.773438 -4.898438 1.359375 -5.515625 C 1.941406 -6.128906 2.640625 -6.4375 3.453125 -6.4375 C 4.066406 -6.4375 4.570312 -6.269531 4.96875 -5.9375 C 5.363281 -5.613281 5.5625 -5.28125 5.5625 -4.9375 C 5.5625 -4.757812 5.503906 -4.617188 5.390625 -4.515625 C 5.285156 -4.410156 5.132812 -4.359375 4.9375 -4.359375 C 4.664062 -4.359375 4.460938 -4.441406 4.328125 -4.609375 C 4.242188 -4.703125 4.191406 -4.882812 4.171875 -5.15625 C 4.148438 -5.425781 4.054688 -5.628906 3.890625 -5.765625 C 3.734375 -5.898438 3.515625 -5.96875 3.234375 -5.96875 C 2.773438 -5.96875 2.410156 -5.800781 2.140625 -5.46875 C 1.765625 -5.019531 1.578125 -4.429688 1.578125 -3.703125 C 1.578125 -2.953125 1.757812 -2.289062 2.125 -1.71875 C 2.5 -1.15625 2.992188 -0.875 3.609375 -0.875 C 4.054688 -0.875 4.457031 -1.023438 4.8125 -1.328125 C 5.0625 -1.535156 5.304688 -1.914062 5.546875 -2.46875 Z M 5.75 -2.375 "/>
</g>
<g id="glyph-0-5">
<path d="M 0.34375 -6.25 L 5.75 -6.25 L 6.015625 -4.5625 L 5.703125 -4.5625 C 5.648438 -4.894531 5.5625 -5.15625 5.4375 -5.34375 C 5.3125 -5.53125 5.164062 -5.648438 5 -5.703125 C 4.832031 -5.765625 4.550781 -5.796875 4.15625 -5.796875 L 3.609375 -5.796875 L 3.609375 -1.46875 C 3.609375 -1 3.632812 -0.703125 3.6875 -0.578125 C 3.75 -0.453125 3.84375 -0.367188 3.96875 -0.328125 C 4.101562 -0.285156 4.394531 -0.257812 4.84375 -0.25 L 4.84375 0 L 1.453125 0 L 1.453125 -0.25 C 1.890625 -0.257812 2.171875 -0.328125 2.296875 -0.453125 C 2.421875 -0.585938 2.484375 -0.925781 2.484375 -1.46875 L 2.484375 -5.796875 L 1.921875 -5.796875 C 1.535156 -5.796875 1.269531 -5.769531 1.125 -5.71875 C 0.976562 -5.675781 0.84375 -5.566406 0.71875 -5.390625 C 0.59375 -5.210938 0.484375 -4.9375 0.390625 -4.5625 L 0.078125 -4.5625 Z M 0.34375 -6.25 "/>
</g>
<g id="glyph-0-6">
<path d="M -0.015625 -5.625 L 1.90625 -6.40625 L 2.171875 -6.40625 L 2.171875 -4.9375 C 2.492188 -5.488281 2.816406 -5.875 3.140625 -6.09375 C 3.460938 -6.320312 3.804688 -6.4375 4.171875 -6.4375 C 4.796875 -6.4375 5.316406 -6.1875 5.734375 -5.6875 C 6.242188 -5.09375 6.5 -4.3125 6.5 -3.34375 C 6.5 -2.269531 6.191406 -1.378906 5.578125 -0.671875 C 5.066406 -0.0976562 4.425781 0.1875 3.65625 0.1875 C 3.320312 0.1875 3.03125 0.140625 2.78125 0.046875 C 2.601562 -0.015625 2.398438 -0.148438 2.171875 -0.359375 L 2.171875 1.546875 C 2.171875 1.972656 2.195312 2.242188 2.25 2.359375 C 2.300781 2.472656 2.390625 2.5625 2.515625 2.625 C 2.648438 2.695312 2.882812 2.734375 3.21875 2.734375 L 3.21875 2.984375 L -0.046875 2.984375 L -0.046875 2.734375 L 0.125 2.734375 C 0.375 2.734375 0.585938 2.6875 0.765625 2.59375 C 0.847656 2.539062 0.910156 2.457031 0.953125 2.34375 C 1.003906 2.238281 1.03125 1.957031 1.03125 1.5 L 1.03125 -4.40625 C 1.03125 -4.8125 1.007812 -5.066406 0.96875 -5.171875 C 0.9375 -5.285156 0.878906 -5.367188 0.796875 -5.421875 C 0.722656 -5.472656 0.617188 -5.5 0.484375 -5.5 C 0.378906 -5.5 0.238281 -5.46875 0.0625 -5.40625 Z M 2.171875 -4.546875 L 2.171875 -2.203125 C 2.171875 -1.703125 2.191406 -1.375 2.234375 -1.21875 C 2.296875 -0.945312 2.445312 -0.710938 2.6875 -0.515625 C 2.9375 -0.316406 3.253906 -0.21875 3.640625 -0.21875 C 4.085938 -0.21875 4.453125 -0.394531 4.734375 -0.75 C 5.109375 -1.21875 5.296875 -1.867188 5.296875 -2.703125 C 5.296875 -3.660156 5.085938 -4.394531 4.671875 -4.90625 C 4.378906 -5.257812 4.03125 -5.4375 3.625 -5.4375 C 3.40625 -5.4375 3.191406 -5.382812 2.984375 -5.28125 C 2.816406 -5.195312 2.546875 -4.953125 2.171875 -4.546875 Z M 2.171875 -4.546875 "/>
</g>
<g id="glyph-0-7">
<path d="M 3.96875 -0.90625 C 3.332031 -0.40625 2.929688 -0.117188 2.765625 -0.046875 C 2.523438 0.0664062 2.265625 0.125 1.984375 0.125 C 1.554688 0.125 1.203125 -0.0195312 0.921875 -0.3125 C 0.640625 -0.601562 0.5 -0.992188 0.5 -1.484375 C 0.5 -1.785156 0.566406 -2.046875 0.703125 -2.265625 C 0.890625 -2.578125 1.210938 -2.867188 1.671875 -3.140625 C 2.128906 -3.410156 2.894531 -3.742188 3.96875 -4.140625 L 3.96875 -4.390625 C 3.96875 -5.003906 3.867188 -5.425781 3.671875 -5.65625 C 3.484375 -5.894531 3.195312 -6.015625 2.8125 -6.015625 C 2.53125 -6.015625 2.304688 -5.9375 2.140625 -5.78125 C 1.960938 -5.625 1.875 -5.445312 1.875 -5.25 L 1.890625 -4.859375 C 1.890625 -4.648438 1.832031 -4.488281 1.71875 -4.375 C 1.613281 -4.257812 1.476562 -4.203125 1.3125 -4.203125 C 1.144531 -4.203125 1.003906 -4.257812 0.890625 -4.375 C 0.785156 -4.5 0.734375 -4.660156 0.734375 -4.859375 C 0.734375 -5.253906 0.929688 -5.613281 1.328125 -5.9375 C 1.734375 -6.269531 2.296875 -6.4375 3.015625 -6.4375 C 3.578125 -6.4375 4.035156 -6.34375 4.390625 -6.15625 C 4.648438 -6.007812 4.847656 -5.785156 4.984375 -5.484375 C 5.066406 -5.296875 5.109375 -4.898438 5.109375 -4.296875 L 5.109375 -2.171875 C 5.109375 -1.578125 5.117188 -1.210938 5.140625 -1.078125 C 5.160156 -0.941406 5.195312 -0.847656 5.25 -0.796875 C 5.300781 -0.753906 5.359375 -0.734375 5.421875 -0.734375 C 5.492188 -0.734375 5.5625 -0.75 5.625 -0.78125 C 5.71875 -0.84375 5.898438 -1.007812 6.171875 -1.28125 L 6.171875 -0.90625 C 5.660156 -0.21875 5.175781 0.125 4.71875 0.125 C 4.488281 0.125 4.304688 0.046875 4.171875 -0.109375 C 4.046875 -0.265625 3.976562 -0.53125 3.96875 -0.90625 Z M 3.96875 -1.34375 L 3.96875 -3.71875 C 3.289062 -3.445312 2.847656 -3.253906 2.640625 -3.140625 C 2.285156 -2.941406 2.03125 -2.734375 1.875 -2.515625 C 1.71875 -2.296875 1.640625 -2.054688 1.640625 -1.796875 C 1.640625 -1.472656 1.738281 -1.203125 1.9375 -0.984375 C 2.132812 -0.765625 2.359375 -0.65625 2.609375 -0.65625 C 2.953125 -0.65625 3.40625 -0.882812 3.96875 -1.34375 Z M 3.96875 -1.34375 "/>
</g>
<g id="glyph-0-8">
<path d="M 7.15625 -0.25 L 7.15625 1.734375 L 6.90625 1.734375 C 6.894531 1.203125 6.722656 0.78125 6.390625 0.46875 C 6.054688 0.15625 5.445312 0 4.5625 0 L 0.3125 0 L 0.3125 -0.25 C 0.71875 -0.25 0.976562 -0.320312 1.09375 -0.46875 C 1.207031 -0.625 1.265625 -0.957031 1.265625 -1.46875 L 1.265625 -4.78125 C 1.265625 -5.269531 1.238281 -5.554688 1.1875 -5.640625 C 1.132812 -5.734375 1.054688 -5.8125 0.953125 -5.875 C 0.847656 -5.945312 0.632812 -5.984375 0.3125 -5.984375 L 0.3125 -6.25 L 3.328125 -6.25 L 3.328125 -5.984375 C 3.023438 -5.984375 2.820312 -5.953125 2.71875 -5.890625 C 2.613281 -5.828125 2.53125 -5.75 2.46875 -5.65625 C 2.414062 -5.570312 2.390625 -5.28125 2.390625 -4.78125 L 2.390625 -1.25 C 2.390625 -0.851562 2.421875 -0.617188 2.484375 -0.546875 C 2.554688 -0.472656 2.785156 -0.4375 3.171875 -0.4375 L 4.28125 -0.4375 C 4.695312 -0.4375 4.9375 -0.472656 5 -0.546875 C 5.0625 -0.628906 5.09375 -0.882812 5.09375 -1.3125 L 5.09375 -4.78125 C 5.09375 -5.207031 5.066406 -5.484375 5.015625 -5.609375 C 4.972656 -5.734375 4.882812 -5.828125 4.75 -5.890625 C 4.625 -5.953125 4.421875 -5.984375 4.140625 -5.984375 L 4.140625 -6.25 L 7.15625 -6.25 L 7.15625 -5.984375 C 6.851562 -5.984375 6.648438 -5.953125 6.546875 -5.890625 C 6.441406 -5.828125 6.359375 -5.75 6.296875 -5.65625 C 6.242188 -5.570312 6.21875 -5.28125 6.21875 -4.78125 L 6.21875 -1.5625 C 6.21875 -0.976562 6.269531 -0.617188 6.375 -0.484375 C 6.476562 -0.347656 6.738281 -0.269531 7.15625 -0.25 Z M 7.15625 -0.25 "/>
</g>
<g id="glyph-0-9">
<path d="M 3.5 -6.4375 C 4.4375 -6.4375 5.191406 -6.078125 5.765625 -5.359375 C 6.253906 -4.742188 6.5 -4.035156 6.5 -3.234375 C 6.5 -2.679688 6.363281 -2.117188 6.09375 -1.546875 C 5.820312 -0.972656 5.453125 -0.539062 4.984375 -0.25 C 4.515625 0.0390625 3.992188 0.1875 3.421875 0.1875 C 2.472656 0.1875 1.722656 -0.1875 1.171875 -0.9375 C 0.703125 -1.5625 0.46875 -2.269531 0.46875 -3.0625 C 0.46875 -3.632812 0.609375 -4.203125 0.890625 -4.765625 C 1.179688 -5.335938 1.554688 -5.757812 2.015625 -6.03125 C 2.484375 -6.300781 2.976562 -6.4375 3.5 -6.4375 Z M 3.28125 -5.984375 C 3.039062 -5.984375 2.796875 -5.910156 2.546875 -5.765625 C 2.304688 -5.628906 2.109375 -5.378906 1.953125 -5.015625 C 1.804688 -4.660156 1.734375 -4.203125 1.734375 -3.640625 C 1.734375 -2.722656 1.914062 -1.9375 2.28125 -1.28125 C 2.644531 -0.625 3.117188 -0.296875 3.703125 -0.296875 C 4.148438 -0.296875 4.515625 -0.476562 4.796875 -0.84375 C 5.085938 -1.207031 5.234375 -1.832031 5.234375 -2.71875 C 5.234375 -3.820312 4.992188 -4.691406 4.515625 -5.328125 C 4.191406 -5.765625 3.78125 -5.984375 3.28125 -5.984375 Z M 3.28125 -5.984375 "/>
</g>
<g id="glyph-0-10">
<path d="M 2.390625 -3.453125 L 5.09375 -3.453125 L 5.09375 -4.78125 C 5.09375 -5.175781 5.078125 -5.429688 5.046875 -5.546875 C 5.015625 -5.671875 4.9375 -5.773438 4.8125 -5.859375 C 4.6875 -5.941406 4.460938 -5.984375 4.140625 -5.984375 L 4.140625 -6.25 L 7.15625 -6.25 L 7.15625 -5.984375 C 6.875 -5.984375 6.664062 -5.953125 6.53125 -5.890625 C 6.40625 -5.828125 6.320312 -5.734375 6.28125 -5.609375 C 6.238281 -5.492188 6.21875 -5.21875 6.21875 -4.78125 L 6.21875 -1.46875 C 6.21875 -1.070312 6.234375 -0.804688 6.265625 -0.671875 C 6.296875 -0.546875 6.378906 -0.441406 6.515625 -0.359375 C 6.648438 -0.285156 6.863281 -0.25 7.15625 -0.25 L 7.15625 0 L 4.140625 0 L 4.140625 -0.25 C 4.515625 -0.25 4.765625 -0.316406 4.890625 -0.453125 C 5.023438 -0.597656 5.09375 -0.9375 5.09375 -1.46875 L 5.09375 -3.015625 L 2.390625 -3.015625 L 2.390625 -1.46875 C 2.390625 -1.070312 2.40625 -0.804688 2.4375 -0.671875 C 2.46875 -0.546875 2.550781 -0.441406 2.6875 -0.359375 C 2.820312 -0.285156 3.035156 -0.25 3.328125 -0.25 L 3.328125 0 L 0.3125 0 L 0.3125 -0.25 C 0.71875 -0.25 0.976562 -0.320312 1.09375 -0.46875 C 1.207031 -0.625 1.265625 -0.957031 1.265625 -1.46875 L 1.265625 -4.78125 C 1.265625 -5.175781 1.242188 -5.4375 1.203125 -5.5625 C 1.171875 -5.6875 1.085938 -5.785156 0.953125 -5.859375 C 0.828125 -5.941406 0.613281 -5.984375 0.3125 -5.984375 L 0.3125 -6.25 L 3.328125 -6.25 L 3.328125 -5.984375 C 3.046875 -5.984375 2.84375 -5.953125 2.71875 -5.890625 C 2.59375 -5.828125 2.503906 -5.734375 2.453125 -5.609375 C 2.410156 -5.492188 2.390625 -5.21875 2.390625 -4.78125 Z M 2.390625 -3.453125 "/>
</g>
<g id="glyph-0-11">
<path d="M 5.921875 -5.984375 L 5.921875 -6.25 L 9.078125 -6.25 L 9.078125 -5.984375 C 8.796875 -5.984375 8.59375 -5.953125 8.46875 -5.890625 C 8.34375 -5.835938 8.253906 -5.75 8.203125 -5.625 C 8.148438 -5.5 8.125 -5.21875 8.125 -4.78125 L 8.125 -1.46875 C 8.125 -1.039062 8.144531 -0.765625 8.1875 -0.640625 C 8.226562 -0.515625 8.316406 -0.414062 8.453125 -0.34375 C 8.585938 -0.28125 8.796875 -0.25 9.078125 -0.25 L 9.078125 0 L 5.921875 0 L 5.921875 -0.25 C 6.273438 -0.257812 6.503906 -0.28125 6.609375 -0.3125 C 6.722656 -0.351562 6.816406 -0.441406 6.890625 -0.578125 C 6.960938 -0.722656 7 -1.019531 7 -1.46875 L 7 -4.78125 C 7 -5.21875 6.972656 -5.5 6.921875 -5.625 C 6.867188 -5.757812 6.78125 -5.851562 6.65625 -5.90625 C 6.53125 -5.957031 6.285156 -5.984375 5.921875 -5.984375 Z M 2.375 -3.46875 L 3.15625 -3.484375 C 5.007812 -3.484375 5.9375 -2.910156 5.9375 -1.765625 C 5.9375 -1.234375 5.707031 -0.804688 5.25 -0.484375 C 4.800781 -0.160156 4.15625 0 3.3125 0 L 0.3125 0 L 0.3125 -0.25 C 0.707031 -0.25 0.960938 -0.320312 1.078125 -0.46875 C 1.191406 -0.625 1.25 -0.957031 1.25 -1.46875 L 1.25 -4.78125 C 1.25 -5.269531 1.222656 -5.554688 1.171875 -5.640625 C 1.128906 -5.734375 1.054688 -5.8125 0.953125 -5.875 C 0.847656 -5.945312 0.632812 -5.984375 0.3125 -5.984375 L 0.3125 -6.25 L 3.578125 -6.25 L 3.578125 -5.984375 C 3.128906 -5.984375 2.847656 -5.957031 2.734375 -5.90625 C 2.628906 -5.851562 2.539062 -5.785156 2.46875 -5.703125 C 2.40625 -5.617188 2.375 -5.3125 2.375 -4.78125 Z M 2.375 -0.53125 C 2.613281 -0.46875 2.859375 -0.4375 3.109375 -0.4375 C 3.554688 -0.4375 3.921875 -0.554688 4.203125 -0.796875 C 4.492188 -1.046875 4.640625 -1.351562 4.640625 -1.71875 C 4.640625 -2.59375 4.03125 -3.03125 2.8125 -3.03125 C 2.707031 -3.03125 2.5625 -3.023438 2.375 -3.015625 Z M 2.375 -0.53125 "/>
</g>
<g id="glyph-0-12">
<path d="M 1.5 -8.75 C 1.5 -8.90625 1.539062 -9.03125 1.625 -9.125 C 1.71875 -9.226562 1.832031 -9.28125 1.96875 -9.28125 C 2.269531 -9.28125 2.535156 -9 2.765625 -8.4375 C 2.898438 -8.113281 3.050781 -7.910156 3.21875 -7.828125 C 3.394531 -7.753906 3.5625 -7.71875 3.71875 -7.71875 C 4.007812 -7.71875 4.226562 -7.78125 4.375 -7.90625 C 4.519531 -8.03125 4.65625 -8.25 4.78125 -8.5625 C 4.96875 -9.039062 5.203125 -9.28125 5.484375 -9.28125 C 5.617188 -9.28125 5.734375 -9.226562 5.828125 -9.125 C 5.921875 -9.03125 5.96875 -8.910156 5.96875 -8.765625 C 5.96875 -8.410156 5.738281 -8.082031 5.28125 -7.78125 C 4.820312 -7.488281 4.304688 -7.34375 3.734375 -7.34375 C 2.984375 -7.34375 2.421875 -7.476562 2.046875 -7.75 C 1.679688 -8.019531 1.5 -8.351562 1.5 -8.75 Z M 2.390625 -1.921875 L 5.09375 -5.046875 C 5.082031 -5.398438 5.015625 -5.644531 4.890625 -5.78125 C 4.765625 -5.914062 4.550781 -5.984375 4.25 -5.984375 L 4.25 -6.25 L 7.15625 -6.25 L 7.15625 -5.984375 C 6.851562 -5.984375 6.648438 -5.953125 6.546875 -5.890625 C 6.441406 -5.828125 6.359375 -5.75 6.296875 -5.65625 C 6.242188 -5.570312 6.21875 -5.28125 6.21875 -4.78125 L 6.21875 -1.46875 C 6.21875 -0.988281 6.238281 -0.703125 6.28125 -0.609375 C 6.332031 -0.515625 6.410156 -0.429688 6.515625 -0.359375 C 6.628906 -0.285156 6.84375 -0.25 7.15625 -0.25 L 7.15625 0 L 4.140625 0 L 4.140625 -0.25 C 4.515625 -0.25 4.765625 -0.316406 4.890625 -0.453125 C 5.023438 -0.597656 5.09375 -0.9375 5.09375 -1.46875 L 5.09375 -4.40625 L 2.390625 -1.28125 C 2.398438 -0.894531 2.453125 -0.628906 2.546875 -0.484375 C 2.648438 -0.335938 2.867188 -0.257812 3.203125 -0.25 L 3.203125 0 L 0.3125 0 L 0.3125 -0.25 C 0.71875 -0.25 0.976562 -0.320312 1.09375 -0.46875 C 1.207031 -0.625 1.265625 -0.957031 1.265625 -1.46875 L 1.265625 -4.78125 C 1.265625 -5.269531 1.238281 -5.554688 1.1875 -5.640625 C 1.132812 -5.734375 1.054688 -5.8125 0.953125 -5.875 C 0.847656 -5.945312 0.632812 -5.984375 0.3125 -5.984375 L 0.3125 -6.25 L 3.328125 -6.25 L 3.328125 -5.984375 C 3.023438 -5.984375 2.820312 -5.953125 2.71875 -5.890625 C 2.613281 -5.828125 2.53125 -5.75 2.46875 -5.65625 C 2.414062 -5.570312 2.390625 -5.28125 2.390625 -4.78125 Z M 2.390625 -1.921875 "/>
</g>
<g id="glyph-0-13">
</g>
<g id="glyph-0-14">
<path d="M 4.46875 -1.625 L 6.421875 -6.25 L 8.53125 -6.25 L 8.53125 -5.984375 C 8.21875 -5.984375 8.007812 -5.953125 7.90625 -5.890625 C 7.8125 -5.828125 7.734375 -5.75 7.671875 -5.65625 C 7.609375 -5.570312 7.578125 -5.28125 7.578125 -4.78125 L 7.578125 -1.46875 C 7.578125 -1.03125 7.597656 -0.75 7.640625 -0.625 C 7.691406 -0.5 7.78125 -0.40625 7.90625 -0.34375 C 8.039062 -0.28125 8.25 -0.25 8.53125 -0.25 L 8.53125 0 L 5.515625 0 L 5.515625 -0.25 C 5.890625 -0.25 6.140625 -0.316406 6.265625 -0.453125 C 6.390625 -0.597656 6.453125 -0.9375 6.453125 -1.46875 L 6.453125 -5.21875 L 4.25 0 L 4 0 L 1.75 -5.21875 L 1.75 -1.46875 C 1.75 -1.03125 1.769531 -0.75 1.8125 -0.625 C 1.863281 -0.5 1.953125 -0.40625 2.078125 -0.34375 C 2.210938 -0.28125 2.421875 -0.25 2.703125 -0.25 L 2.703125 0 L 0.3125 0 L 0.3125 -0.25 C 0.71875 -0.25 0.976562 -0.320312 1.09375 -0.46875 C 1.207031 -0.625 1.265625 -0.957031 1.265625 -1.46875 L 1.265625 -4.78125 C 1.265625 -5.269531 1.238281 -5.554688 1.1875 -5.640625 C 1.132812 -5.734375 1.054688 -5.8125 0.953125 -5.875 C 0.847656 -5.945312 0.632812 -5.984375 0.3125 -5.984375 L 0.3125 -6.25 L 2.515625 -6.25 Z M 4.46875 -1.625 "/>
</g>
<g id="glyph-0-15">
<path d="M 1.640625 -9.25 L 9.28125 -9.25 L 9.28125 -9 C 8.707031 -8.976562 8.335938 -8.882812 8.171875 -8.71875 C 8.015625 -8.5625 7.9375 -8.175781 7.9375 -7.5625 L 7.9375 -2.4375 C 7.9375 -1.445312 7.992188 -0.832031 8.109375 -0.59375 C 8.222656 -0.363281 8.59375 -0.25 9.21875 -0.25 L 9.21875 2.65625 L 8.984375 2.65625 C 8.847656 1.988281 8.628906 1.445312 8.328125 1.03125 C 8.023438 0.625 7.679688 0.347656 7.296875 0.203125 C 6.910156 0.0664062 6.445312 0 5.90625 0 L 3.546875 0 C 2.515625 0 1.753906 0.273438 1.265625 0.828125 C 0.785156 1.390625 0.5 2 0.40625 2.65625 L 0.171875 2.65625 L 0.171875 -0.25 C 0.910156 -0.3125 1.507812 -0.75 1.96875 -1.5625 C 2.425781 -2.382812 2.742188 -3.382812 2.921875 -4.5625 C 3.097656 -5.75 3.1875 -6.722656 3.1875 -7.484375 C 3.1875 -7.941406 3.128906 -8.273438 3.015625 -8.484375 C 2.898438 -8.703125 2.765625 -8.835938 2.609375 -8.890625 C 2.453125 -8.941406 2.128906 -8.976562 1.640625 -9 Z M 3.875 -8.75 C 3.757812 -6.050781 3.539062 -4.15625 3.21875 -3.0625 C 2.894531 -1.976562 2.46875 -1.125 1.9375 -0.5 L 5.359375 -0.5 C 5.972656 -0.5 6.335938 -0.550781 6.453125 -0.65625 C 6.578125 -0.769531 6.640625 -1.117188 6.640625 -1.703125 L 6.640625 -8.75 Z M 3.875 -8.75 "/>
</g>
<g id="glyph-0-16">
<path d="M 7.1875 -8.75 L 2.90625 -8.75 L 2.90625 -1.6875 C 2.90625 -1.070312 2.984375 -0.679688 3.140625 -0.515625 C 3.296875 -0.359375 3.660156 -0.269531 4.234375 -0.25 L 4.234375 0 L 0.25 0 L 0.25 -0.25 C 0.820312 -0.269531 1.1875 -0.359375 1.34375 -0.515625 C 1.507812 -0.679688 1.59375 -1.070312 1.59375 -1.6875 L 1.59375 -7.5625 C 1.59375 -8.175781 1.507812 -8.5625 1.34375 -8.71875 C 1.1875 -8.882812 0.820312 -8.976562 0.25 -9 L 0.25 -9.25 L 9.828125 -9.25 L 9.828125 -9 C 9.253906 -8.976562 8.890625 -8.882812 8.734375 -8.71875 C 8.578125 -8.5625 8.5 -8.175781 8.5 -7.5625 L 8.5 -1.6875 C 8.5 -1.070312 8.578125 -0.679688 8.734375 -0.515625 C 8.890625 -0.359375 9.253906 -0.269531 9.828125 -0.25 L 9.828125 0 L 5.859375 0 L 5.859375 -0.25 C 6.429688 -0.269531 6.796875 -0.359375 6.953125 -0.515625 C 7.109375 -0.679688 7.1875 -1.070312 7.1875 -1.6875 Z M 7.1875 -8.75 "/>
</g>
<g id="glyph-0-17">
<path d="M 1.296875 -6.25 L 6.796875 -6.25 L 6.796875 -5.984375 C 6.492188 -5.984375 6.289062 -5.953125 6.1875 -5.890625 C 6.082031 -5.828125 6 -5.75 5.9375 -5.65625 C 5.882812 -5.570312 5.859375 -5.28125 5.859375 -4.78125 L 5.859375 -1.6875 C 5.859375 -1.039062 5.910156 -0.640625 6.015625 -0.484375 C 6.128906 -0.335938 6.390625 -0.257812 6.796875 -0.25 L 6.796875 1.734375 L 6.546875 1.734375 C 6.523438 1.359375 6.429688 1.03125 6.265625 0.75 C 6.097656 0.476562 5.863281 0.285156 5.5625 0.171875 C 5.269531 0.0546875 4.835938 0 4.265625 0 L 2.65625 0 C 2.15625 0 1.765625 0.0390625 1.484375 0.125 C 1.203125 0.21875 0.960938 0.40625 0.765625 0.6875 C 0.578125 0.96875 0.46875 1.316406 0.4375 1.734375 L 0.171875 1.734375 L 0.171875 -0.25 C 0.546875 -0.257812 0.882812 -0.40625 1.1875 -0.6875 C 1.5 -0.976562 1.769531 -1.535156 2 -2.359375 C 2.226562 -3.179688 2.34375 -3.988281 2.34375 -4.78125 C 2.34375 -5.5625 1.992188 -5.960938 1.296875 -5.984375 Z M 2.796875 -5.796875 L 2.796875 -5.421875 C 2.796875 -3.191406 2.390625 -1.53125 1.578125 -0.4375 L 3.90625 -0.4375 C 4.320312 -0.4375 4.5625 -0.472656 4.625 -0.546875 C 4.6875 -0.617188 4.71875 -0.878906 4.71875 -1.328125 L 4.71875 -5.796875 Z M 2.796875 -5.796875 "/>
</g>
<g id="glyph-0-18">
<path d="M 5.09375 -5.796875 L 2.390625 -5.796875 L 2.390625 -1.46875 C 2.390625 -0.988281 2.410156 -0.703125 2.453125 -0.609375 C 2.503906 -0.515625 2.582031 -0.429688 2.6875 -0.359375 C 2.800781 -0.285156 3.015625 -0.25 3.328125 -0.25 L 3.328125 0 L 0.3125 0 L 0.3125 -0.25 C 0.71875 -0.25 0.976562 -0.320312 1.09375 -0.46875 C 1.207031 -0.625 1.265625 -0.957031 1.265625 -1.46875 L 1.265625 -4.78125 C 1.265625 -5.269531 1.238281 -5.554688 1.1875 -5.640625 C 1.132812 -5.734375 1.054688 -5.8125 0.953125 -5.875 C 0.847656 -5.945312 0.632812 -5.984375 0.3125 -5.984375 L 0.3125 -6.25 L 7.15625 -6.25 L 7.15625 -5.984375 C 6.851562 -5.984375 6.648438 -5.953125 6.546875 -5.890625 C 6.441406 -5.828125 6.359375 -5.75 6.296875 -5.65625 C 6.242188 -5.570312 6.21875 -5.28125 6.21875 -4.78125 L 6.21875 -1.46875 C 6.21875 -0.988281 6.238281 -0.703125 6.28125 -0.609375 C 6.332031 -0.515625 6.410156 -0.429688 6.515625 -0.359375 C 6.628906 -0.285156 6.84375 -0.25 7.15625 -0.25 L 7.15625 0 L 4.140625 0 L 4.140625 -0.25 C 4.515625 -0.25 4.765625 -0.316406 4.890625 -0.453125 C 5.023438 -0.597656 5.09375 -0.9375 5.09375 -1.46875 Z M 5.09375 -5.796875 "/>
</g>
<g id="glyph-0-19">
<path d="M 2.390625 -3.46875 L 3.171875 -3.484375 C 5.023438 -3.484375 5.953125 -2.910156 5.953125 -1.765625 C 5.953125 -1.234375 5.722656 -0.804688 5.265625 -0.484375 C 4.816406 -0.160156 4.164062 0 3.3125 0 L 0.3125 0 L 0.3125 -0.25 C 0.71875 -0.25 0.976562 -0.320312 1.09375 -0.46875 C 1.207031 -0.625 1.265625 -0.957031 1.265625 -1.46875 L 1.265625 -4.78125 C 1.265625 -5.269531 1.238281 -5.554688 1.1875 -5.640625 C 1.132812 -5.734375 1.054688 -5.8125 0.953125 -5.875 C 0.847656 -5.945312 0.632812 -5.984375 0.3125 -5.984375 L 0.3125 -6.25 L 3.578125 -6.25 L 3.578125 -5.984375 C 3.128906 -5.984375 2.851562 -5.957031 2.75 -5.90625 C 2.644531 -5.851562 2.554688 -5.785156 2.484375 -5.703125 C 2.421875 -5.617188 2.390625 -5.3125 2.390625 -4.78125 Z M 2.390625 -0.53125 C 2.628906 -0.46875 2.867188 -0.4375 3.109375 -0.4375 C 3.566406 -0.4375 3.9375 -0.554688 4.21875 -0.796875 C 4.5 -1.046875 4.640625 -1.351562 4.640625 -1.71875 C 4.640625 -2.59375 4.035156 -3.03125 2.828125 -3.03125 C 2.722656 -3.03125 2.578125 -3.023438 2.390625 -3.015625 Z M 2.390625 -0.53125 "/>
</g>
<g id="glyph-0-20">
<path d="M 0.078125 -6.25 L 3 -6.25 L 3 -6 L 2.84375 -6 C 2.644531 -6 2.492188 -5.953125 2.390625 -5.859375 C 2.285156 -5.773438 2.234375 -5.664062 2.234375 -5.53125 C 2.234375 -5.351562 2.3125 -5.109375 2.46875 -4.796875 L 3.984375 -1.640625 L 5.375 -5.09375 C 5.457031 -5.28125 5.5 -5.460938 5.5 -5.640625 C 5.5 -5.722656 5.484375 -5.785156 5.453125 -5.828125 C 5.410156 -5.878906 5.347656 -5.921875 5.265625 -5.953125 C 5.191406 -5.984375 5.0625 -6 4.875 -6 L 4.875 -6.25 L 6.90625 -6.25 L 6.90625 -6 C 6.738281 -5.976562 6.609375 -5.9375 6.515625 -5.875 C 6.421875 -5.820312 6.320312 -5.722656 6.21875 -5.578125 C 6.175781 -5.515625 6.097656 -5.335938 5.984375 -5.046875 L 3.4375 1.1875 C 3.1875 1.789062 2.863281 2.242188 2.46875 2.546875 C 2.070312 2.859375 1.691406 3.015625 1.328125 3.015625 C 1.054688 3.015625 0.832031 2.9375 0.65625 2.78125 C 0.488281 2.625 0.40625 2.445312 0.40625 2.25 C 0.40625 2.0625 0.46875 1.90625 0.59375 1.78125 C 0.71875 1.664062 0.890625 1.609375 1.109375 1.609375 C 1.253906 1.609375 1.457031 1.660156 1.71875 1.765625 C 1.894531 1.835938 2.007812 1.875 2.0625 1.875 C 2.195312 1.875 2.34375 1.800781 2.5 1.65625 C 2.664062 1.519531 2.832031 1.25 3 0.84375 L 3.4375 -0.25 L 1.1875 -4.953125 C 1.125 -5.097656 1.015625 -5.273438 0.859375 -5.484375 C 0.753906 -5.640625 0.664062 -5.742188 0.59375 -5.796875 C 0.488281 -5.867188 0.316406 -5.9375 0.078125 -6 Z M 0.078125 -6.25 "/>
</g>
<g id="glyph-0-21">
<path d="M 6.703125 0 L 4.859375 0 C 4.285156 -0.832031 3.769531 -1.6875 3.3125 -2.5625 C 3.195312 -2.757812 3.09375 -2.90625 3 -3 C 2.914062 -3.101562 2.796875 -3.15625 2.640625 -3.15625 C 2.585938 -3.15625 2.503906 -3.148438 2.390625 -3.140625 L 2.390625 -1.46875 C 2.390625 -1.019531 2.414062 -0.734375 2.46875 -0.609375 C 2.519531 -0.484375 2.613281 -0.390625 2.75 -0.328125 C 2.882812 -0.273438 3.113281 -0.25 3.4375 -0.25 L 3.4375 0 L 0.3125 0 L 0.3125 -0.25 C 0.71875 -0.25 0.976562 -0.320312 1.09375 -0.46875 C 1.207031 -0.625 1.265625 -0.957031 1.265625 -1.46875 L 1.265625 -4.78125 C 1.265625 -5.269531 1.238281 -5.554688 1.1875 -5.640625 C 1.132812 -5.734375 1.054688 -5.8125 0.953125 -5.875 C 0.847656 -5.945312 0.632812 -5.984375 0.3125 -5.984375 L 0.3125 -6.25 L 3.4375 -6.25 L 3.4375 -5.984375 C 3.0625 -5.984375 2.828125 -5.957031 2.734375 -5.90625 C 2.648438 -5.851562 2.570312 -5.785156 2.5 -5.703125 C 2.425781 -5.628906 2.390625 -5.320312 2.390625 -4.78125 L 2.390625 -3.546875 C 2.492188 -3.546875 2.5625 -3.546875 2.59375 -3.546875 C 2.875 -3.546875 3.132812 -3.625 3.375 -3.78125 C 3.625 -3.9375 3.84375 -4.269531 4.03125 -4.78125 C 4.207031 -5.257812 4.351562 -5.582031 4.46875 -5.75 C 4.582031 -5.914062 4.742188 -6.050781 4.953125 -6.15625 C 5.160156 -6.269531 5.378906 -6.328125 5.609375 -6.328125 C 5.847656 -6.328125 6.039062 -6.265625 6.1875 -6.140625 C 6.332031 -6.023438 6.40625 -5.875 6.40625 -5.6875 C 6.40625 -5.519531 6.351562 -5.378906 6.25 -5.265625 C 6.144531 -5.160156 6 -5.109375 5.8125 -5.109375 C 5.71875 -5.109375 5.59375 -5.132812 5.4375 -5.1875 C 5.25 -5.257812 5.101562 -5.296875 5 -5.296875 C 4.789062 -5.296875 4.617188 -5.113281 4.484375 -4.75 C 4.328125 -4.34375 4.210938 -4.078125 4.140625 -3.953125 C 4.066406 -3.828125 3.929688 -3.664062 3.734375 -3.46875 C 3.867188 -3.425781 4.019531 -3.320312 4.1875 -3.15625 C 4.351562 -2.988281 4.660156 -2.507812 5.109375 -1.71875 C 5.472656 -1.082031 5.742188 -0.679688 5.921875 -0.515625 C 6.097656 -0.347656 6.359375 -0.257812 6.703125 -0.25 Z M 6.703125 0 "/>
</g>
<g id="glyph-1-0">
</g>
</g>
</defs>
<g fill="rgb(0%, 0%, 0%)" fill-opacity="1">
<use xlink:href="#glyph-0-0" x="85.002906" y="70.140721"/>
<use xlink:href="#glyph-0-1" x="92.766918" y="70.140721"/>
<use xlink:href="#glyph-0-2" x="98.966956" y="70.140721"/>
<use xlink:href="#glyph-0-3" x="104.692216" y="70.140721"/>
</g>
<g fill="rgb(0%, 0%, 0%)" fill-opacity="1">
<use xlink:href="#glyph-0-4" x="112.190911" y="70.140721"/>
<use xlink:href="#glyph-0-5" x="118.390949" y="70.140721"/>
<use xlink:href="#glyph-0-6" x="124.493238" y="70.140721"/>
<use xlink:href="#glyph-0-7" x="131.475263" y="70.140721"/>
<use xlink:href="#glyph-0-8" x="137.675301" y="70.140721"/>
</g>
<g fill="rgb(0%, 0%, 0%)" fill-opacity="1">
<use xlink:href="#glyph-0-3" x="145.201924" y="70.140721"/>
<use xlink:href="#glyph-0-9" x="152.672691" y="70.140721"/>
</g>
<g fill="rgb(0%, 0%, 0%)" fill-opacity="1">
<use xlink:href="#glyph-0-10" x="159.696608" y="70.140721"/>
<use xlink:href="#glyph-0-10" x="167.167374" y="70.140721"/>
<use xlink:href="#glyph-0-11" x="174.638141" y="70.140721"/>
</g>
<g fill="rgb(0%, 0%, 0%)" fill-opacity="1">
<use xlink:href="#glyph-0-12" x="184.077838" y="70.140721"/>
<use xlink:href="#glyph-0-13" x="191.548605" y="70.140721"/>
<use xlink:href="#glyph-0-10" x="195.039617" y="70.140721"/>
<use xlink:href="#glyph-0-9" x="202.510384" y="70.140721"/>
<use xlink:href="#glyph-0-14" x="209.492409" y="70.140721"/>
<use xlink:href="#glyph-0-1" x="218.331652" y="70.140721"/>
</g>
<g fill="rgb(0%, 0%, 0%)" fill-opacity="1">
<use xlink:href="#glyph-0-6" x="224.475834" y="70.140721"/>
</g>
<g fill="rgb(0%, 0%, 0%)" fill-opacity="1">
<use xlink:href="#glyph-1-0" x="231.595462" y="70.140721"/>
</g>
<g fill="rgb(0%, 0%, 0%)" fill-opacity="1">
<use xlink:href="#glyph-1-0" x="264.817514" y="70.140721"/>
</g>
<g fill="rgb(0%, 0%, 0%)" fill-opacity="1">
<use xlink:href="#glyph-1-0" x="300.77644" y="70.140721"/>
</g>
<path fill-rule="evenodd" fill="rgb(0%, 0%, 0%)" fill-opacity="1" d="M 231.59375 72.296875 L 300.777344 72.296875 L 300.777344 71.640625 L 231.59375 71.640625 Z M 231.59375 72.296875 "/>
<g fill="rgb(0%, 0%, 0%)" fill-opacity="1">
<use xlink:href="#glyph-0-15" x="85.002906" y="98.608204"/>
<use xlink:href="#glyph-0-7" x="94.526388" y="98.608204"/>
<use xlink:href="#glyph-0-5" x="100.726426" y="98.608204"/>
<use xlink:href="#glyph-0-7" x="106.828716" y="98.608204"/>
<use xlink:href="#glyph-0-13" x="113.028754" y="98.608204"/>
</g>
<g fill="rgb(0%, 0%, 0%)" fill-opacity="1">
<use xlink:href="#glyph-1-0" x="116.58683" y="98.608204"/>
</g>
<g fill="rgb(0%, 0%, 0%)" fill-opacity="1">
<use xlink:href="#glyph-1-0" x="120.961832" y="98.608204"/>
</g>
<g fill="rgb(0%, 0%, 0%)" fill-opacity="1">
<use xlink:href="#glyph-1-0" x="156.920758" y="98.608204"/>
</g>
<g fill="rgb(0%, 0%, 0%)" fill-opacity="1">
<use xlink:href="#glyph-1-0" x="192.879685" y="98.608204"/>
</g>
<path fill-rule="evenodd" fill="rgb(0%, 0%, 0%)" fill-opacity="1" d="M 116.585938 100.765625 L 192.878906 100.765625 L 192.878906 100.105469 L 116.585938 100.105469 Z M 116.585938 100.765625 "/>
<g fill="rgb(0%, 0%, 0%)" fill-opacity="1">
<use xlink:href="#glyph-1-0" x="85.002906" y="114.729789"/>
</g>
<g fill="rgb(0%, 0%, 0%)" fill-opacity="1">
<use xlink:href="#glyph-0-16" x="85.002906" y="130.791443"/>
<use xlink:href="#glyph-0-9" x="95.08495" y="130.791443"/>
<use xlink:href="#glyph-0-17" x="102.066975" y="130.791443"/>
<use xlink:href="#glyph-0-18" x="109.174676" y="130.791443"/>
</g>
<g fill="rgb(0%, 0%, 0%)" fill-opacity="1">
<use xlink:href="#glyph-0-3" x="116.687335" y="130.791443"/>
<use xlink:href="#glyph-0-4" x="124.158101" y="130.791443"/>
<use xlink:href="#glyph-0-19" x="130.358139" y="130.791443"/>
<use xlink:href="#glyph-0-13" x="136.725746" y="130.791443"/>
<use xlink:href="#glyph-0-4" x="140.216758" y="130.791443"/>
<use xlink:href="#glyph-0-9" x="146.416796" y="130.791443"/>
<use xlink:href="#glyph-0-5" x="153.398821" y="130.791443"/>
<use xlink:href="#glyph-0-6" x="159.501111" y="130.791443"/>
</g>
<g fill="rgb(0%, 0%, 0%)" fill-opacity="1">
<use xlink:href="#glyph-0-20" x="166.538992" y="130.791443"/>
<use xlink:href="#glyph-0-17" x="173.521017" y="130.791443"/>
</g>
<g fill="rgb(0%, 0%, 0%)" fill-opacity="1">
<use xlink:href="#glyph-0-10" x="180.67061" y="130.791443"/>
<use xlink:href="#glyph-0-3" x="188.141377" y="130.791443"/>
<use xlink:href="#glyph-0-21" x="195.612143" y="130.791443"/>
<use xlink:href="#glyph-0-7" x="202.398672" y="130.791443"/>
</g>
<g fill="rgb(0%, 0%, 0%)" fill-opacity="1">
<use xlink:href="#glyph-0-13" x="208.542853" y="130.791443"/>
<use xlink:href="#glyph-0-17" x="212.033866" y="130.791443"/>
</g>
<g fill="rgb(0%, 0%, 0%)" fill-opacity="1">
<use xlink:href="#glyph-0-1" x="219.197423" y="130.791443"/>
<use xlink:href="#glyph-0-21" x="225.397461" y="130.791443"/>
<use xlink:href="#glyph-0-7" x="232.18399" y="130.791443"/>
</g>
<g fill="rgb(0%, 0%, 0%)" fill-opacity="1">
<use xlink:href="#glyph-0-10" x="238.314207" y="130.791443"/>
</g>
<g fill="rgb(0%, 0%, 0%)" fill-opacity="1">
<use xlink:href="#glyph-0-7" x="245.854794" y="130.791443"/>
<use xlink:href="#glyph-0-5" x="252.054832" y="130.791443"/>
</g>
<g fill="rgb(0%, 0%, 0%)" fill-opacity="1">
<use xlink:href="#glyph-0-7" x="258.18505" y="130.791443"/>
<use xlink:href="#glyph-0-13" x="264.385088" y="130.791443"/>
</g>
<g fill="rgb(0%, 0%, 0%)" fill-opacity="1">
<use xlink:href="#glyph-1-0" x="267.993886" y="130.791443"/>
</g>
<g fill="rgb(0%, 0%, 0%)" fill-opacity="1">
<use xlink:href="#glyph-1-0" x="300.77644" y="130.791443"/>
</g>
<g fill="rgb(0%, 0%, 0%)" fill-opacity="1">
<use xlink:href="#glyph-1-0" x="336.735366" y="130.791443"/>
</g>
<path fill-rule="evenodd" fill="rgb(0%, 0%, 0%)" fill-opacity="1" d="M 267.992188 132.96875 L 336.734375 132.96875 L 336.734375 132.308594 L 267.992188 132.308594 Z M 267.992188 132.96875 "/>
</svg>
